{"title":"Sin.City.A.Dame.To.Kill.For.2014.CAM.XViD-FANTA","uid":10873104,"size":1525745005,"categoryP":"video","categoryS":"movies","magnet":"?xt=urn:btih:52ad367638a2c2f2eac26396a81557b651530b52&amp;dn=Sin.City.A.Dame.To.Kill.For.2014.CAM.XViD-FANTA&amp;tr=udp%3A%2F%2Ftracker.openbittorrent.com%3A80&amp;tr=udp%3A%2F%2Fopen.demonii.com%3A1337&amp;tr=udp%3A%2F%2Ftracker.coppersurfer.tk%3A6969&amp;tr=udp%3A%2F%2Fexodus.desync.com%3A6969","seeders":7,"leechers":3,"uploader":"xxxlavalxxx","files":-1,"time":1408981180,"description":"[IMG]http://i.imgur.com/vxnL7i3.jpg[/IMG]\n\n &lt;a href=&quot;\nhttp://www.imdb.com/title/tt0458481/&quot; rel=&quot;nofollow&quot; target=&quot;_NEW&quot;&gt;\nhttp://www.imdb.com/title/tt0458481/&lt;/a&gt;\n\n\nCo-directors Robert Rodriguez and Frank Miller reunite to bring Miller's &quot;Sin City&quot; graphic novels back to the screen. Weaving together two of Miller's classic stories with new tales, the town's most hard boiled citizens cross paths with some of its more notorious inhabitants.\n\nDirectors: Frank Miller, Robert Rodriguez\nWriters: Frank Miller, Frank Miller (graphic novels)\nStars: Mickey Rourke, Jessica Alba, Josh Brolin\nGenres: Action | Crime | Thriller\nCountry: USA\nLanguage: English\n\n\nFormat                                   : AVI\nFormat/Info                              : Audio Video Interleave\nFormat profile                           : OpenDML\nFormat settings                          : rec\nFile size                                : 1.40 GiB\nDuration                                 : 1h 36mn\nOverall bit rate                         : 2 089 Kbps\nWriting application                      : AVI-Mux GUI 1.17.8.3, Feb 16 201019:42:50\n\nVideo\nID                                       : 0\nFormat                                   : MPEG-4 Visual\nFormat profile                           : Advanced Simple@L5\nFormat settings, BVOP                    : 2\nFormat settings, QPel                    : No\nFormat settings, GMC                     : No warppoints\nFormat settings, Matrix                  : Default (H.263)\nMuxing mode                              : Packed bitstream\nCodec ID                                 : XVID\nCodec ID/Hint                            : XviD\nDuration                                 : 1h 36mn\nBit rate                                 : 1 891 Kbps\nWidth                                    : 720 pixels\nHeight                                   : 384 pixels\nDisplay aspect ratio                     : 1.85:1\nFrame rate                               : 29.970 fps\nColor space                              : YUV\nChroma subsampling                       : 4:2:0\nBit depth                                : 8 bits\nScan type                                : Progressive\nCompression mode                         : Lossy\nBits/(Pixel*Frame)                       : 0.228\nStream size                              : 1.27 GiB (91%)\nWriting library                          : XviD 64\n\nAudio\nID                                       : 1\nFormat                                   : AC-3\nFormat/Info                              : Audio Coding 3\nMode extension                           : CM (complete main)\nFormat settings, Endianness              : Big\nCodec ID                                 : 2000\nDuration                                 : 1h 36mn\nBit rate mode                            : Constant\nBit rate                                 : 192 Kbps\nChannel(s)                               : 2 channels\nChannel positions                        : Front: L R\nSampling rate                            : 48.0 KHz\nBit depth                                : 16 bits\nCompression mode                         : Lossy\nStream size                              : 132 MiB (9%)\nAlignment                                : Aligned on interleaves\nInterleave, duration                     : 64 ms (1.92 video frames)\nInterleave, preload duration             : 192 ms\nTitle                                    : Sin.City.A.Dame.to.Kill.For.2014\n\n\n\ninfo\n &lt;a href=&quot;\nhttp://i.imgur.com/zD4pl1p.png&quot; rel=&quot;nofollow&quot; target=&quot;_NEW&quot;&gt;\nhttp://i.imgur.com/zD4pl1p.png&lt;/a&gt;\n\n\nscreens\n &lt;a href=&quot;\nhttp://i.imgur.com/UzDDs9g.jpg&quot; rel=&quot;nofollow&quot; target=&quot;_NEW&quot;&gt;\nhttp://i.imgur.com/UzDDs9g.jpg&lt;/a&gt; &lt;a href=&quot;\nhttp://i.imgur.com/ZPqZoX5.jpg&quot; rel=&quot;nofollow&quot; target=&quot;_NEW&quot;&gt;\nhttp://i.imgur.com/ZPqZoX5.jpg&lt;/a&gt; &lt;a href=&quot;\nhttp://i.imgur.com/EfhqZpV.jpg&quot; rel=&quot;nofollow&quot; target=&quot;_NEW&quot;&gt;\nhttp://i.imgur.com/EfhqZpV.jpg&lt;/a&gt; &lt;a href=&quot;\nhttp://i.imgur.com/MXogVuf.jpg&quot; rel=&quot;nofollow&quot; target=&quot;_NEW&quot;&gt;\nhttp://i.imgur.com/MXogVuf.jpg&lt;/a&gt; &lt;a href=&quot;\nhttp://i.imgur.com/L7XfX1y.jpg&quot; rel=&quot;nofollow&quot; target=&quot;_NEW&quot;&gt;\nhttp://i.imgur.com/L7XfX1y.jpg&lt;/a&gt; &lt;a href=&quot;\nhttp://i.imgur.com/c6ZZgyW.jpg&quot; rel=&quot;nofollow&quot; target=&quot;_NEW&quot;&gt;\nhttp://i.imgur.com/c6ZZgyW.jpg&lt;/a&gt;","torrent":{"xt":"urn:btih:52ad367638a2c2f2eac26396a81557b651530b52","amp;dn":"Sin.City.A.Dame.To.Kill.For.2014.CAM.XViD-FANTA","amp;tr":["udp%3A%2F%2Ftracker.openbittorrent.com%3A80","udp%3A%2F%2Fopen.demonii.com%3A1337","udp%3A%2F%2Ftracker.coppersurfer.tk%3A6969","udp%3A%2F%2Fexodus.desync.com%3A6969"],"infoHash":"52ad367638a2c2f2eac26396a81557b651530b52","infoHashBuffer":{"type":"Buffer","data":[82,173,54,118,56,162,194,242,234,194,99,150,168,21,87,182,81,83,11,82]},"announce":[],"urlList":[]}}